<?xml version="1.0" encoding="utf-8"?>
<!-- Generator: Adobe Illustrator 24.2.1, SVG Export Plug-In . SVG Version: 6.00 Build 0)  -->
<svg version="1.1" id="Layer_1" xmlns="http://www.w3.org/2000/svg" xmlns:xlink="http://www.w3.org/1999/xlink" x="0px" y="0px"
	 viewBox="0 0 512 512" style="enable-background:new 0 0 512 512;" xml:space="preserve">
<style type="text/css">
	.st0{fill:#FFFFFF;}
	.st1{fill:none;stroke:#6298A9;stroke-width:2;stroke-linecap:round;stroke-miterlimit:10;}
	.st2{fill:url(#SVGID_1_);}
	.st3{clip-path:url(#SVGID_3_);}
	.st4{fill:url(#SVGID_4_);}
</style>
<path class="st0" d="M301.5,308.8h-70.1c-15.3,0-27.7-12.4-27.7-27.7V149.9c0-15.3,12.4-27.7,27.7-27.7h70.1
	c15.3,0,27.7,12.4,27.7,27.7v131.2C329.3,296.4,316.8,308.8,301.5,308.8z"/>
<g>
	<path class="st1" d="M298.8,160.3"/>
	<path class="st1" d="M305,196c1.1-3.7,1.7-7.6,1.7-11.7c0-4.5-0.7-8.8-2-12.8c-0.5-1.6-1.1-3.1-1.8-4.5"/>
	<path class="st1" d="M302.3,183.4c0,0.3,0,0.6,0,0.9s0,0.6,0,0.9c0,3.3-0.3,6.5-0.7,9.7c-0.6,4.4-1.5,8.7-2.7,12.8"/>
	<path class="st1" d="M302.3,184.3c0,0.3,0,0.6,0,0.9C302.3,184.9,302.3,184.6,302.3,184.3z"/>
	<path class="st1" d="M302.3,183.4c0,0.3,0,0.6,0,0.9C302.3,184,302.3,183.7,302.3,183.4z"/>
	<path class="st1" d="M302.3,185.2"/>
	<path class="st1" d="M294.3,206.9c-1,3.3-2.2,6.4-3.6,9.5"/>
	<path class="st1" d="M294.3,161.7c4.8,5.8,7.8,13.4,8,21.7"/>
	<path class="st1" d="M298.8,160.3c-2.3-3.1-5-5.8-8-8"/>
	<path class="st1" d="M294.3,206.9"/>
	<path class="st1" d="M297.7,183.6c0,0.3,0,0.5,0,0.8"/>
	<path class="st1" d="M302.3,185.2c0-0.3,0-0.6,0-0.9s0-0.6,0-0.9"/>
	<path class="st1" d="M297.7,183.6c0,0.3,0,0.5,0,0.8C297.7,184.1,297.7,183.8,297.7,183.6z"/>
	<path class="st1" d="M286.8,155c2.8,1.8,5.4,4.1,7.5,6.7"/>
	<path class="st1" d="M290.7,152.3c-2.3-1.7-4.9-3.1-7.5-4.3"/>
	<path class="st1" d="M290.2,164.2c4.5,5.1,7.3,11.9,7.5,19.3"/>
	<path class="st1" d="M294.3,161.7c-1.3-1.5-2.7-2.9-4.1-4.2c-1.1-0.9-2.2-1.8-3.4-2.5"/>
	<path class="st1" d="M290.2,204.4c-0.9,3.2-2.1,6.3-3.4,9.2"/>
	<path class="st1" d="M295.7,201.9c0.5-2.1,0.9-4.2,1.2-6.3c0.5-3.7,0.8-7.4,0.8-11.2"/>
	<path class="st1" d="M297.7,184.3c0-0.3,0-0.5,0-0.8c-0.2-6.3-2.2-12.1-5.5-16.8c-0.4-0.5-0.8-1.1-1.2-1.6c-0.3-0.3-0.6-0.7-0.8-1"
		/>
	<path class="st1" d="M293,184.3c0,2.6-0.1,5.2-0.4,7.8c-0.5,4.2-1.3,8.4-2.4,12.4"/>
	<path class="st1" d="M283.2,220.7c1.3-2.2,2.5-4.6,3.6-7"/>
	<path class="st1" d="M279.8,217.1c-1.1,1.9-2.3,3.8-3.6,5.6"/>
	<path class="st1" d="M279.8,151.6c2.5,0.9,4.8,2,7,3.4"/>
	<path class="st1" d="M283.2,148c-2.2-0.9-4.6-1.6-7-2.1"/>
	<path class="st1" d="M283.2,158.4c2.6,1.5,5,3.5,7,5.8"/>
	<path class="st1" d="M286.8,155c-2.2-1.4-4.5-2.6-7-3.4"/>
	<path class="st1" d="M286,166.8c4.3,4.5,7,10.7,7,17.5"/>
	<path class="st1" d="M290.2,164.2c-2-2.3-4.4-4.2-7-5.8"/>
	<path class="st1" d="M293,184.3c0-1.2-0.1-2.3-0.2-3.5c-0.7-5.5-3.2-10.4-6.7-14.1"/>
	<path class="st1" d="M287.2,196.4c-0.3,1.9-0.7,3.7-1.2,5.5"/>
	<path class="st1" d="M288.3,184.3c0,1.3,0,2.7-0.1,4"/>
	<path class="st1" d="M273.3,150.1"/>
	<path class="st1" d="M276.2,145.9c-2.1-0.4-4.3-0.6-6.5-0.6"/>
	<path class="st1" d="M273.3,218.6c-1.1,1.7-2.3,3.2-3.6,4.8"/>
	<path class="st1" d="M276.2,222.7c1.3-1.8,2.5-3.7,3.6-5.6"/>
	<path class="st1" d="M276.7,155.7c2.3,0.6,4.5,1.5,6.5,2.7"/>
	<path class="st1" d="M276.7,212.9c-1,2-2.1,3.8-3.4,5.6"/>
	<path class="st1" d="M279.8,217.1c0.1-0.2,0.3-0.5,0.4-0.7"/>
	<path class="st1" d="M276.7,212.9"/>
	<path class="st1" d="M283.2,210.2c0.1-0.3,0.2-0.6,0.4-0.9c1-2.4,1.8-4.9,2.5-7.5"/>
	<path class="st1" d="M283.2,158.4c-2-1.2-4.2-2.1-6.5-2.7"/>
	<path class="st1" d="M279.5,162c0.3,0.2,0.7,0.3,1,0.5c2,1.1,3.9,2.6,5.5,4.2"/>
	<path class="st1" d="M281.9,199.2c-0.6,2.5-1.4,5-2.3,7.4"/>
	<path class="st1" d="M286,201.9"/>
	<path class="st1" d="M288.3,184.3c0-2.2-0.3-4.2-0.9-6.2c-0.2-0.7-0.5-1.3-0.7-1.9c-1.1-2.6-2.8-4.9-4.8-6.8"/>
	<path class="st1" d="M283.7,184.3c0,5.1-0.6,10.1-1.8,14.9"/>
	<path class="st1" d="M267.3,150c0.8-0.1,1.5-0.1,2.3-0.1c1.2,0,2.4,0.1,3.6,0.2"/>
	<path class="st1" d="M269.7,145.3C269.7,145.3,269.7,145.3,269.7,145.3c-2.1,0-4,0.2-6,0.5"/>
	<path class="st1" d="M270.7,154.8c2.1,0.1,4,0.4,6,0.9"/>
	<path class="st1" d="M273.3,150.1c-1.2-0.1-2.4-0.2-3.6-0.2c-0.8,0-1.6,0-2.3,0.1"/>
	<path class="st1" d="M273.3,218.6c1.2-1.8,2.3-3.7,3.4-5.6"/>
	<path class="st1" d="M270.7,213.8c-1,1.7-2.2,3.3-3.4,4.9"/>
	<path class="st1" d="M273.6,208.6c-0.9,1.8-1.8,3.6-2.9,5.2"/>
	<path class="st1" d="M279.5,206.6"/>
	<path class="st1" d="M276.7,155.7c-1.9-0.5-3.9-0.8-6-0.9"/>
	<path class="st1" d="M273.6,160.1"/>
	<path class="st1" d="M275.9,202.9c-0.7,2-1.5,3.9-2.3,5.7"/>
	<path class="st1" d="M279.5,206.6c0.9-2.4,1.7-4.9,2.3-7.4"/>
	<path class="st1" d="M277.7,196.4c-0.5,2.2-1.1,4.4-1.8,6.5"/>
	<path class="st1" d="M281.9,199.2c1.2-4.8,1.8-9.7,1.8-14.9"/>
	<path class="st1" d="M277.7,172.3c3.6,2.7,6,7.1,6,12.1"/>
	<path class="st1" d="M281.9,169.4c-1.7-1.6-3.8-2.8-6-3.7"/>
	<path class="st1" d="M279,184.3c0,4.2-0.4,8.2-1.3,12.1"/>
	<path class="st1" d="M283.7,184.3c0-5-2.4-9.4-6-12.1"/>
	<path class="st1" d="M262,150.8c1.7-0.4,3.5-0.7,5.3-0.9"/>
	<path class="st1" d="M263.7,145.8c-1.8,0.3-3.6,0.8-5.3,1.3"/>
	<path class="st1" d="M263.7,222.8c1.3-1.3,2.5-2.7,3.6-4.1"/>
	<path class="st1" d="M262,217.8c-1.1,1.3-2.3,2.5-3.6,3.7"/>
	<path class="st1" d="M267.3,218.7c1.2-1.5,2.3-3.2,3.4-4.9"/>
	<path class="st1" d="M265.4,213.5c-1,1.5-2.2,2.9-3.4,4.3"/>
	<path class="st1" d="M265.4,155.1c1.4-0.2,2.8-0.3,4.3-0.3c0.3,0,0.7,0,1,0"/>
	<path class="st1" d="M267.3,150c-1.8,0.1-3.6,0.4-5.3,0.9"/>
	<path class="st1" d="M270.7,213.8c1-1.7,2-3.4,2.9-5.2"/>
	<path class="st1" d="M268.3,208.9c-0.9,1.6-1.8,3.1-2.9,4.6"/>
	<path class="st1" d="M270.7,154.8c-0.3,0-0.7,0-1,0c-1.5,0-2.9,0.1-4.3,0.3"/>
	<path class="st1" d="M268.3,159.8c0.5,0,0.9,0,1.4,0c1.1,0,2.2,0.1,3.3,0.2c0.2,0,0.4,0.1,0.6,0.1"/>
	<path class="st1" d="M272.4,198.8c-0.5,1.8-1.1,3.5-1.8,5.2"/>
	<path class="st1" d="M275.9,202.9c0.7-2.1,1.3-4.3,1.8-6.5"/>
	<path class="st1" d="M272.4,169.8"/>
	<path class="st1" d="M275.9,165.8c-1.7-0.6-3.5-1-5.3-1.1"/>
	<path class="st1" d="M273.7,175.5c3.1,1.6,5.3,5,5.3,8.9"/>
	<path class="st1" d="M272.4,169.8"/>
	<path class="st1" d="M279,184.3c0-3.9-2.2-7.3-5.3-8.9"/>
	<path class="st1" d="M274.5,184.3c0,3-0.3,6-0.8,8.9"/>
	<path class="st1" d="M256.9,152.6c1.7-0.7,3.4-1.3,5.2-1.8"/>
	<path class="st1" d="M258.4,147.1c-1.8,0.6-3.5,1.3-5.2,2.2"/>
	<path class="st1" d="M258.4,221.5c1.3-1.2,2.5-2.4,3.6-3.7"/>
	<path class="st1" d="M256.9,216c-1.1,1.2-2.3,2.3-3.6,3.3"/>
	<path class="st1" d="M260.2,156.5c1.7-0.6,3.4-1.1,5.2-1.4"/>
	<path class="st1" d="M262,150.8c-1.8,0.4-3.5,1.1-5.2,1.8"/>
	<path class="st1" d="M265.4,155.1c-1.8,0.3-3.5,0.8-5.2,1.4"/>
	<path class="st1" d="M263.1,160.7c1.7-0.5,3.4-0.8,5.2-0.9"/>
	<path class="st1" d="M268.3,208.9c0.9-1.6,1.6-3.2,2.3-4.9"/>
	<path class="st1" d="M265.4,203.5c-0.7,1.5-1.5,3-2.3,4.4"/>
	<path class="st1" d="M267.3,169.8c0.8-0.1,1.6-0.2,2.4-0.2c0.9,0,1.9,0.1,2.7,0.3"/>
	<path class="st1" d="M270.6,164.7c-0.3,0-0.6,0-0.9,0c-1.5,0-2.9,0.2-4.2,0.5"/>
	<path class="st1" d="M272.4,198.8"/>
	<path class="st1" d="M268.5,194.1c-0.3,1.6-0.8,3.2-1.3,4.8"/>
	<path class="st1" d="M268.5,174.6c0.4,0,0.7-0.1,1.1-0.1c1.4,0,2.8,0.3,4,1"/>
	<path class="st1" d="M272.4,169.8c-0.9-0.2-1.8-0.3-2.7-0.3c-0.8,0-1.6,0.1-2.4,0.2"/>
	<path class="st1" d="M252.5,155c1.4-0.9,2.8-1.7,4.3-2.4"/>
	<path class="st1" d="M249,152"/>
	<path class="st1" d="M253.3,149.3"/>
	<path class="st1" d="M253.3,219.3c1.3-1,2.4-2.1,3.6-3.3"/>
	<path class="st1" d="M252.5,213.7c-1.1,1.1-2.3,2.1-3.6,3"/>
	<path class="st1" d="M255.9,158.6c1.4-0.8,2.8-1.5,4.3-2.1"/>
	<path class="st1" d="M256.9,152.6c-1.5,0.7-2.9,1.5-4.3,2.4"/>
	<path class="st1" d="M256.9,216c1.2-1.2,2.3-2.5,3.4-3.9"/>
	<path class="st1" d="M255.9,210.1"/>
	<path class="st1" d="M258.8,162.6c0.8-0.5,1.7-0.9,2.6-1.2c0.6-0.2,1.2-0.4,1.8-0.6"/>
	<path class="st1" d="M260.2,156.5c-1.5,0.6-2.9,1.3-4.3,2.1"/>
	<path class="st1" d="M260.2,212.2"/>
	<path class="st1" d="M258.8,206.1c-0.9,1.4-1.8,2.7-2.9,4"/>
	<path class="st1" d="M261.1,201.8c-0.7,1.5-1.5,2.9-2.3,4.3"/>
	<path class="st1" d="M263.1,207.9c0.9-1.4,1.6-2.9,2.3-4.4"/>
	<path class="st1" d="M262.9,171.4c1.3-0.8,2.8-1.3,4.3-1.6"/>
	<path class="st1" d="M265.4,165.2c-1.5,0.4-3,0.9-4.3,1.7"/>
	<path class="st1" d="M265.4,203.5c0.7-1.5,1.3-3,1.8-4.6"/>
	<path class="st1" d="M262.9,197.3c-0.5,1.6-1.1,3.1-1.8,4.6"/>
	<path class="st1" d="M264.2,176.3c1.2-0.9,2.7-1.6,4.3-1.8"/>
	<path class="st1" d="M267.3,169.8c-1.5,0.3-3,0.8-4.3,1.6"/>
	<path class="st1" d="M267.3,198.9c0.5-1.6,0.9-3.1,1.3-4.8"/>
	<path class="st1" d="M264.2,192.3c-0.3,1.7-0.8,3.3-1.3,4.9"/>
	<path class="st1" d="M268.5,194.1c0.3-1.6,0.6-3.2,0.8-4.9"/>
	<path class="st1" d="M265,184.3c0,2.7-0.3,5.4-0.8,8"/>
	<path class="st1" d="M268.5,174.6c-1.6,0.2-3.1,0.8-4.3,1.8"/>
	<path class="st1" d="M265,184.3c0-2.6,1.9-4.7,4.3-4.9"/>
	<path class="st1" d="M248.7,157.9c1.2-1.1,2.5-2.1,3.9-3"/>
	<path class="st1" d="M249,152c-1.4,1-2.7,2-3.9,3.2"/>
	<path class="st1" d="M252,161.4"/>
	<path class="st1" d="M254.9,165.3c1.2-1,2.5-1.9,3.9-2.7"/>
	<path class="st1" d="M259,174.7c1.1-1.3,2.4-2.5,3.9-3.3"/>
	<path class="st1" d="M261.1,166.8c-1.4,0.8-2.7,1.7-3.9,2.8"/>
	<path class="st1" d="M262.9,197.3c0.5-1.6,1-3.3,1.3-4.9"/>
	<path class="st1" d="M260.3,184.3c0,3.3-0.5,6.6-1.3,9.6"/>
	<path class="st1" d="M260.3,184.3c0-3.3,1.5-6.2,3.9-8"/>
	<path class="st1" d="M262.9,171.4c-1.5,0.9-2.8,2-3.9,3.3"/>
	<path class="st1" d="M264.2,192.3c0.5-2.6,0.8-5.3,0.8-8"/>
	<path class="st1" d="M264.2,176.3c-2.4,1.8-3.9,4.7-3.9,8"/>
	<path class="st1" d="M245.3,161.4c1-1.2,2.2-2.4,3.4-3.4"/>
	<path class="st1" d="M245.1,155.2c-1.2,1.1-2.3,2.3-3.4,3.6"/>
	<path class="st1" d="M245.1,213.5c1.3-0.8,2.4-1.8,3.6-2.8"/>
	<path class="st1" d="M245.3,207.3c-1.1,1-2.3,1.8-3.6,2.6"/>
	<path class="st1" d="M248.7,210.7c1.2-1.1,2.3-2.2,3.4-3.4"/>
	<path class="st1" d="M248.7,203.9c-1,1.2-2.2,2.4-3.4,3.4"/>
	<path class="st1" d="M248.7,164.8"/>
	<path class="st1" d="M251.5,168.9c1-1.3,2.1-2.5,3.4-3.6"/>
	<path class="st1" d="M252,207.3c1-1.2,2-2.5,2.9-3.9"/>
	<path class="st1" d="M251.5,199.8c-0.8,1.4-1.8,2.8-2.9,4.1"/>
	<path class="st1" d="M253.9,194.8c-0.6,1.8-1.4,3.4-2.3,5"/>
	<path class="st1" d="M254.9,203.4c0.9-1.4,1.7-2.8,2.3-4.4"/>
	<path class="st1" d="M255.7,184.3c0-3.7,1.3-7,3.4-9.6"/>
	<path class="st1" d="M253.9,173.9"/>
	<path class="st1" d="M257.2,199c0.7-1.6,1.3-3.3,1.8-5.1"/>
	<path class="st1" d="M255.7,184.3"/>
	<path class="st1" d="M259,193.9c0.8-3.1,1.3-6.3,1.3-9.6"/>
	<path class="st1" d="M259,174.7c-2.1,2.6-3.4,5.9-3.4,9.6"/>
	<path class="st1" d="M242.4,165.3c0.9-1.4,1.8-2.7,2.9-3.9"/>
	<path class="st1" d="M241.7,158.8c-1,1.3-2,2.6-2.9,4"/>
	<path class="st1" d="M241.7,209.9c1.3-0.8,2.5-1.6,3.6-2.6"/>
	<path class="st1" d="M242.4,203.4c-1.1,1-2.3,1.8-3.6,2.6"/>
	<path class="st1" d="M245.8,168.9c0.8-1.4,1.8-2.8,2.9-4.1"/>
	<path class="st1" d="M245.3,161.4c-1,1.2-2,2.5-2.9,3.9"/>
	<path class="st1" d="M245.8,199.8c-1,1.3-2.1,2.5-3.4,3.6"/>
	<path class="st1" d="M245.3,207.3c1.2-1,2.3-2.2,3.4-3.4"/>
	<path class="st1" d="M248.7,173.6c0.8-1.7,1.7-3.3,2.9-4.7"/>
	<path class="st1" d="M248.7,164.8c-1.1,1.3-2,2.6-2.9,4.1"/>
	<path class="st1" d="M248.7,195.1c-0.8,1.7-1.7,3.3-2.9,4.7"/>
	<path class="st1" d="M248.7,203.9c1.1-1.3,2-2.6,2.9-4.1"/>
	<path class="st1" d="M251,184.3c0,3.8-0.8,7.5-2.3,10.7"/>
	<path class="st1" d="M251.5,199.8"/>
	<path class="st1" d="M251,184.3c0-3.8,1-7.4,2.9-10.5"/>
	<path class="st1" d="M251.5,168.9c-0.3,0.5-0.7,0.9-1,1.4c-0.7,1.1-1.3,2.2-1.9,3.3"/>
	<path class="st1" d="M251,184.3"/>
	<path class="st1" d="M253.9,173.9"/>
	<path class="st1" d="M255.7,184.3"/>
	<path class="st1" d="M238.9,205.9c1.3-0.7,2.5-1.6,3.6-2.6"/>
	<path class="st1" d="M240.1,199c-1.1,1-2.3,1.9-3.6,2.7"/>
	<path class="st1" d="M240.1,169.7"/>
	<path class="st1" d="M238.9,162.7c-0.9,1.4-1.6,2.8-2.3,4.3"/>
	<path class="st1" d="M243.5,173.9c0.6-1.8,1.4-3.4,2.3-5"/>
	<path class="st1" d="M240.1,169.7"/>
	<path class="st1" d="M245.8,168.9c-0.9,1.6-1.7,3.3-2.3,5"/>
	<path class="st1" d="M246.3,184.3c0-0.8,0-1.7,0.1-2.5c0.3-2.9,1-5.7,2.2-8.3"/>
	<path class="st1" d="M248.7,173.6"/>
	<path class="st1" d="M248.7,195.1c1.5-3.2,2.3-6.9,2.3-10.7"/>
	<path class="st1" d="M246.3,184.3"/>
	<path class="st1" d="M236.5,167c-0.7,1.5-1.3,3-1.8,4.6"/>
	<path class="st1" d="M238.3,174.7c0.5-1.7,1.1-3.4,1.8-5.1"/>
	<path class="st1" d="M241.7,184.3c0-3.7,0.6-7.2,1.8-10.5"/>
	<path class="st1" d="M240.1,169.7c-0.7,1.6-1.3,3.3-1.8,5.1"/>
	<path class="st1" d="M240.1,199c1.3-1.2,2.4-2.6,3.4-4.2"/>
	<path class="st1" d="M241.7,184.3c0,3.7-1.3,7-3.4,9.6"/>
	<path class="st1" d="M243.5,173.9c-1.2,3.3-1.8,6.8-1.8,10.5"/>
	<path class="st1" d="M243.5,194.8c1.8-3,2.9-6.6,2.9-10.5"/>
	<path class="st1" d="M237,184.3c0-3.3,0.5-6.6,1.3-9.6"/>
	<path class="st1" d="M234.7,171.6c-0.5,1.6-1,3.3-1.3,5"/>
	<path class="st1" d="M234.7,197.1c1.4-0.8,2.6-1.9,3.6-3.2"/>
	<path class="st1" d="M237,184.3c0,3.2-1.4,6-3.6,7.8"/>
	<path class="st1" d="M237,184.3"/>
	<path class="st1" d="M233.4,176.6c-0.5,2.5-0.7,5.1-0.7,7.8"/>
	<path class="st1" d="M269.6,184.3c0,1.7-0.1,3.3-0.3,4.9"/>
	<path class="st1" d="M274.5,184.3c0-2.7-2.2-4.9-4.8-4.9c-0.1,0-0.2,0-0.3,0"/>
</g>
<linearGradient id="SVGID_1_" gradientUnits="userSpaceOnUse" x1="246.4011" y1="185.6209" x2="298.2263" y2="185.6209">
	<stop  offset="0" style="stop-color:#6298A9"/>
	<stop  offset="1" style="stop-color:#4F587F"/>
</linearGradient>
<path class="st2" d="M296.8,164.6c-1.9-2.2-5.1-2.4-7.2-0.4l-24,31.2L255,184.3c-2-2.1-5.2-2-7.2,0.2c-1.9,2.2-1.9,5.6,0.2,7.7
	l14.2,14.7c0.8,0.8,1.8,1.3,2.8,1.5c0.1,0,0.2,0,0.2,0c0.1,0,0.1,0,0.2,0c1.4,0.1,2.7-0.4,3.8-1.4l27.4-34.7
	C298.7,170.3,298.8,166.8,296.8,164.6z"/>
<g>
	<defs>
		<path id="SVGID_2_" d="M229.7,234.5h73.1c7.6,0,13.8,6.2,13.8,13.8v6.2c0,7.6-6.2,13.8-13.8,13.8h-73.1c-7.6,0-13.8-6.2-13.8-13.8
			v-6.2C215.9,240.7,222.1,234.5,229.7,234.5z"/>
	</defs>
	<clipPath id="SVGID_3_">
		<use xlink:href="#SVGID_2_"  style="overflow:visible;"/>
	</clipPath>
	<g class="st3">
		<path class="st1" d="M298.6,248.9c1-2.3,1.7-4.7,2.2-7.2"/>
		<path class="st1" d="M296.7,238.6"/>
		<path class="st1" d="M300.8,241.7c0.4-2.2,0.7-4.4,0.8-6.7"/>
		<path class="st1" d="M297,232.4c0,0.8,0.1,1.6,0,2.4c0,1.3-0.1,2.5-0.3,3.8"/>
		<path class="st1" d="M301.6,235C301.6,234.9,301.6,234.9,301.6,235c0-2.1-0.1-4.2-0.4-6.2"/>
		<path class="st1" d="M296.7,238.6c0.2-1.2,0.3-2.5,0.3-3.8c0-0.8,0-1.6,0-2.4"/>
		<path class="st1" d="M301.2,228.7c-0.3-1.9-0.7-3.7-1.2-5.5"/>
		<path class="st1" d="M300,223.2c-0.6-1.9-1.2-3.7-2.1-5.4"/>
		<path class="st1" d="M297.9,217.8"/>
		<path class="st1" d="M286,264.9"/>
		<path class="st1" d="M250.2,270.5c3.6,1.2,7.5,1.9,11.6,2c4.5,0.1,8.7-0.5,12.8-1.8c1.6-0.5,3.1-1.1,4.6-1.8"/>
		<path class="st1" d="M262.8,268c-0.3,0-0.6,0-0.9,0c-0.3,0-0.6,0-0.9,0c-3.3-0.1-6.5-0.4-9.6-0.9c-4.4-0.7-8.6-1.7-12.7-3.1"/>
		<path class="st1" d="M261.9,268c-0.3,0-0.6,0-0.9,0C261.3,268,261.6,268,261.9,268z"/>
		<path class="st1" d="M262.8,268c-0.3,0-0.6,0-0.9,0C262.2,268,262.5,268,262.8,268z"/>
		<path class="st1" d="M261,268"/>
		<path class="st1" d="M239.6,259.2c-3.2-1.1-6.3-2.4-9.3-3.9"/>
		<path class="st1" d="M224.9,250.8c-3-1.6-5.8-3.4-8.5-5.4"/>
		<path class="st1" d="M284.6,260.2c-5.9,4.9-13.5,7.8-21.8,7.8"/>
		<path class="st1" d="M286,264.9c3.1-2.3,5.9-5.1,8.2-8.2"/>
		<path class="st1" d="M239.6,259.2"/>
		<path class="st1" d="M262.8,263.2c-0.3,0-0.5,0-0.8,0"/>
		<path class="st1" d="M261,268c0.3,0,0.6,0,0.9,0c0.3,0,0.6,0,0.9,0"/>
		<path class="st1" d="M262.8,263.2c-0.3,0-0.5,0-0.8,0C262.3,263.2,262.5,263.2,262.8,263.2z"/>
		<path class="st1" d="M291.5,252.5c-1.9,2.9-4.2,5.5-6.9,7.7"/>
		<path class="st1" d="M294.1,256.7c1.8-2.4,3.2-5,4.4-7.8"/>
		<path class="st1" d="M307,243.4c0.4-2.2,0.7-4.4,0.8-6.7"/>
		<path class="st1" d="M307.8,236.7C307.8,236.7,307.8,236.7,307.8,236.7c0-2.1-0.1-4.2-0.4-6.2"/>
		<path class="st1" d="M307.4,230.5c-0.3-1.9-0.7-3.7-1.2-5.5"/>
		<path class="st1" d="M306.2,224.9c-0.6-1.9-1.2-3.7-2.1-5.4"/>
		<path class="st1" d="M304.1,219.5"/>
		<path class="st1" d="M292.2,266.6c3.1-2.3,5.9-5.1,8.2-8.2"/>
		<path class="st1" d="M278.3,276.1c3.5-1.6,6.8-3.7,9.8-6.2"/>
		<path class="st1" d="M300.4,258.4c1.8-2.4,3.2-5,4.4-7.8"/>
		<path class="st1" d="M278.7,281.5c3.6-1.3,7.1-3.2,10.2-5.6"/>
		<path class="st1" d="M288.8,275.9c2.4-1.8,4.5-3.9,6.5-6.2"/>
		<path class="st1" d="M282.2,255.8c-5.2,4.6-12,7.3-19.4,7.4"/>
		<path class="st1" d="M284.6,260.2c1.6-1.3,3-2.7,4.3-4.2c0.9-1.1,1.8-2.3,2.6-3.5"/>
		<path class="st1" d="M242.2,254.9c-3.1-1-6.2-2.3-9.1-3.7"/>
		<path class="st1" d="M244.6,260.7c2,0.5,4.1,1,6.2,1.4c3.6,0.6,7.4,1,11.2,1.1"/>
		<path class="st1" d="M262,263.2c0.3,0,0.5,0,0.8,0c6.3,0,12.1-2,16.8-5.3c0.5-0.4,1.1-0.8,1.6-1.2c0.3-0.3,0.7-0.6,1-0.9"/>
		<path class="st1" d="M262.1,258.3c-2.6-0.1-5.2-0.3-7.7-0.6c-4.2-0.6-8.3-1.5-12.2-2.8"/>
		<path class="st1" d="M226.2,247.3c2.2,1.4,4.5,2.7,6.9,3.9"/>
		<path class="st1" d="M225.3,263.6c-2.9-1.7-5.6-3.5-8.1-5.5"/>
		<path class="st1" d="M244.1,271.1c-2.5-0.6-5-1.3-7.4-2.2c-4-1.4-7.8-3.2-11.4-5.3"/>
		<path class="st1" d="M211.3,252.8c1.9,1.9,3.8,3.6,5.9,5.2"/>
		<path class="st1" d="M229.8,243.8c-1.9-1.2-3.8-2.5-5.5-3.9"/>
		<path class="st1" d="M295.1,245.3c-0.9,2.6-2.1,5-3.6,7.2"/>
		<path class="st1" d="M288.2,248.7c-1.6,2.7-3.6,5.1-5.9,7.2"/>
		<path class="st1" d="M291.5,252.5c1.5-2.2,2.7-4.7,3.6-7.2"/>
		<path class="st1" d="M279.8,251.5c-4.5,4.4-10.8,7-17.6,6.9"/>
		<path class="st1" d="M282.2,255.8c2.3-2.1,4.3-4.5,5.9-7.2"/>
		<path class="st1" d="M262.1,258.3c1.2,0,2.3,0,3.5-0.2c5.5-0.6,10.4-3.1,14.2-6.7"/>
		<path class="st1" d="M250.2,252.1c-1.8-0.4-3.6-0.9-5.4-1.4"/>
		<path class="st1" d="M262.3,253.5c-1.3,0-2.7-0.1-4-0.2"/>
		<path class="st1" d="M228.5,237.1c-1.6-1.2-3.2-2.5-4.7-3.8"/>
		<path class="st1" d="M224.3,240c1.8,1.4,3.6,2.7,5.5,3.9"/>
		<path class="st1" d="M291,242c-0.7,2.4-1.6,4.6-2.9,6.7"/>
		<path class="st1" d="M234,240.7c-1.9-1.1-3.8-2.3-5.5-3.6"/>
		<path class="st1" d="M229.8,243.8c0.2,0.1,0.5,0.3,0.7,0.4"/>
		<path class="st1" d="M234,240.7"/>
		<path class="st1" d="M220.8,242.8c-1.6-1.2-3.2-2.5-4.7-3.8"/>
		<path class="st1" d="M226.4,246.4"/>
		<path class="st1" d="M236.6,247.5c0.3,0.1,0.6,0.3,0.9,0.4c2.4,1.1,4.8,2,7.4,2.8"/>
		<path class="st1" d="M288.2,248.7c1.2-2.1,2.2-4.3,2.9-6.7"/>
		<path class="st1" d="M284.7,244.8c-0.2,0.4-0.4,0.7-0.6,1c-1.2,2.1-2.6,4-4.3,5.6"/>
		<path class="st1" d="M247.6,246.4c-2.5-0.7-5-1.6-7.3-2.6"/>
		<path class="st1" d="M244.8,250.7"/>
		<path class="st1" d="M262.3,253.5c2.2,0,4.2-0.3,6.2-0.8c0.7-0.2,1.3-0.4,2-0.7c2.6-1.1,5-2.8,6.8-4.8"/>
		<path class="st1" d="M262.4,248.6c-5.1-0.1-10.1-0.9-14.8-2.2"/>
		<path class="st1" d="M292.1,235.8c-0.1,2.1-0.5,4.2-1,6.2"/>
		<path class="st1" d="M228.5,237.1c1.8,1.3,3.6,2.5,5.5,3.6"/>
		<path class="st1" d="M233.3,234.5c-1.7-1.1-3.2-2.3-4.8-3.6"/>
		<path class="st1" d="M238.4,237.6c-1.8-0.9-3.5-2-5.2-3.1"/>
		<path class="st1" d="M240.2,243.8"/>
		<path class="st1" d="M291,242c0.6-2,0.9-4.1,1-6.2"/>
		<path class="st1" d="M286.8,238.6"/>
		<path class="st1" d="M244.1,240.1c-1.9-0.7-3.8-1.6-5.6-2.6"/>
		<path class="st1" d="M240.2,243.8c2.4,1,4.8,1.9,7.3,2.6"/>
		<path class="st1" d="M250.5,242.2c-2.2-0.5-4.3-1.2-6.4-2"/>
		<path class="st1" d="M247.6,246.4c4.7,1.3,9.7,2.1,14.8,2.2"/>
		<path class="st1" d="M274.5,242.7c-2.7,3.7-7.2,6-12.2,5.9"/>
		<path class="st1" d="M277.2,247.1c1.6-1.8,2.9-3.8,3.8-6.1"/>
		<path class="st1" d="M262.5,243.8c-4.1-0.1-8.2-0.6-12-1.6"/>
		<path class="st1" d="M262.4,248.6c5,0.1,9.4-2.2,12.2-5.9"/>
		<path class="st1" d="M296.2,226.8c0.4,1.8,0.6,3.7,0.7,5.5"/>
		<path class="st1" d="M224.5,227c1.3,1.3,2.6,2.6,4,3.8"/>
		<path class="st1" d="M229.5,225.4c-1.3-1.2-2.5-2.5-3.6-3.8"/>
		<path class="st1" d="M228.5,230.9c1.5,1.3,3.1,2.5,4.8,3.6"/>
		<path class="st1" d="M233.7,229c-1.5-1.1-2.9-2.3-4.2-3.6"/>
		<path class="st1" d="M291.9,230.3c0.2,1.5,0.3,2.9,0.2,4.4c0,0.4,0,0.7,0,1.1"/>
		<path class="st1" d="M297,232.4c-0.1-1.9-0.3-3.7-0.7-5.5"/>
		<path class="st1" d="M233.3,234.5c1.7,1.1,3.4,2.2,5.2,3.1"/>
		<path class="st1" d="M238.3,232.1c-1.6-0.9-3.1-2-4.5-3.1"/>
		<path class="st1" d="M292.1,235.8c0-0.4,0-0.7,0-1.1c0-1.5,0-3-0.2-4.4"/>
		<path class="st1" d="M287.2,233.1c0,0.5,0,1,0,1.5c0,1.2-0.1,2.3-0.3,3.4c0,0.2-0.1,0.4-0.1,0.6"/>
		<path class="st1" d="M248.2,236.6c-1.8-0.6-3.5-1.2-5.1-2"/>
		<path class="st1" d="M244.1,240.1c2.1,0.8,4.2,1.5,6.4,2"/>
		<path class="st1" d="M277.1,237.2"/>
		<path class="st1" d="M281,240.9c0.7-1.7,1.1-3.6,1.2-5.5"/>
		<path class="st1" d="M271.4,238.4c-1.7,3.2-5.1,5.4-9,5.3"/>
		<path class="st1" d="M277.1,237.2"/>
		<path class="st1" d="M262.5,243.8c3.9,0.1,7.3-2.1,9-5.3"/>
		<path class="st1" d="M262.6,239c-3-0.1-6-0.4-8.8-1"/>
		<path class="st1" d="M294.6,221.4c0.7,1.7,1.3,3.5,1.7,5.4"/>
		<path class="st1" d="M225.9,221.6c1.1,1.3,2.3,2.6,3.6,3.8"/>
		<path class="st1" d="M231.4,220c-1.1-1.2-2.2-2.5-3.2-3.8"/>
		<path class="st1" d="M290.6,224.9c0.6,1.7,1,3.5,1.2,5.4"/>
		<path class="st1" d="M296.2,226.8c-0.4-1.9-1-3.7-1.7-5.4"/>
		<path class="st1" d="M291.9,230.3c-0.2-1.9-0.7-3.7-1.2-5.4"/>
		<path class="st1" d="M286.4,227.7c0.5,1.7,0.8,3.5,0.8,5.4"/>
		<path class="st1" d="M238.3,232.1c1.6,0.9,3.2,1.8,4.8,2.5"/>
		<path class="st1" d="M243.7,229.2c-1.5-0.8-3-1.6-4.4-2.5"/>
		<path class="st1" d="M277.2,231.9c0.1,0.8,0.2,1.7,0.2,2.5c0,1-0.1,1.9-0.3,2.9"/>
		<path class="st1" d="M282.3,235.4c0-0.3,0-0.6,0-1c0-1.5-0.1-3-0.4-4.4"/>
		<path class="st1" d="M248.2,236.6"/>
		<path class="st1" d="M253,232.7c-1.6-0.4-3.2-0.9-4.7-1.5"/>
		<path class="st1" d="M272.5,233.1c0,0.4,0.1,0.8,0,1.2c0,1.5-0.4,2.9-1.1,4.2"/>
		<path class="st1" d="M277.1,237.2c0.2-0.9,0.3-1.9,0.3-2.9c0-0.9,0-1.7-0.2-2.5"/>
		<path class="st1" d="M292.3,216.9c0.9,1.5,1.6,3,2.2,4.5"/>
		<path class="st1" d="M295.4,213.2"/>
		<path class="st1" d="M228.2,216.2c1,1.3,2.1,2.6,3.2,3.8"/>
		<path class="st1" d="M233.9,215.6c-1-1.2-2-2.5-2.9-3.8"/>
		<path class="st1" d="M288.6,220.3c0.8,1.4,1.4,3,2,4.5"/>
		<path class="st1" d="M294.6,221.4c-0.6-1.6-1.4-3.1-2.2-4.5"/>
		<path class="st1" d="M231.4,220c1.2,1.3,2.5,2.5,3.8,3.6"/>
		<path class="st1" d="M237.4,219.2"/>
		<path class="st1" d="M284.6,223.2c0.4,0.9,0.8,1.8,1.2,2.7c0.2,0.6,0.4,1.2,0.6,1.8"/>
		<path class="st1" d="M290.6,224.9c-0.5-1.6-1.2-3.1-2-4.5"/>
		<path class="st1" d="M235.2,223.6"/>
		<path class="st1" d="M241.3,222.2c-1.4-0.9-2.7-2-3.9-3.1"/>
		<path class="st1" d="M245.5,224.8c-1.5-0.8-2.9-1.6-4.2-2.5"/>
		<path class="st1" d="M239.3,226.7c1.4,0.9,2.9,1.8,4.4,2.5"/>
		<path class="st1" d="M275.7,227.3c0.7,1.4,1.2,2.9,1.5,4.5"/>
		<path class="st1" d="M281.9,230.1c-0.3-1.6-0.9-3.1-1.6-4.5"/>
		<path class="st1" d="M243.7,229.2c1.5,0.7,3,1.4,4.6,2"/>
		<path class="st1" d="M250,226.8c-1.5-0.6-3-1.2-4.5-2"/>
		<path class="st1" d="M270.8,228.6c0.9,1.3,1.5,2.9,1.7,4.5"/>
		<path class="st1" d="M277.2,231.9c-0.2-1.6-0.8-3.1-1.5-4.5"/>
		<path class="st1" d="M248.3,231.2c1.5,0.6,3.1,1.1,4.7,1.5"/>
		<path class="st1" d="M254.9,228.2c-1.7-0.4-3.3-0.9-4.9-1.5"/>
		<path class="st1" d="M253,232.7c1.6,0.4,3.2,0.7,4.8,0.9"/>
		<path class="st1" d="M262.8,229.2c-2.7-0.1-5.4-0.4-7.9-1"/>
		<path class="st1" d="M272.5,233.1c-0.2-1.7-0.8-3.2-1.7-4.5"/>
		<path class="st1" d="M262.8,229.2c2.6,0.1,4.7,2.1,4.8,4.6"/>
		<path class="st1" d="M289.5,212.8c1.1,1.3,2,2.7,2.9,4.1"/>
		<path class="st1" d="M295.4,213.2c-0.9-1.4-2-2.8-3.1-4.1"/>
		<path class="st1" d="M286,216.2"/>
		<path class="st1" d="M282,219.1c1,1.3,1.9,2.6,2.6,4.1"/>
		<path class="st1" d="M272.5,223.2c1.3,1.2,2.4,2.6,3.2,4.1"/>
		<path class="st1" d="M280.3,225.5c-0.7-1.5-1.6-2.9-2.7-4.1"/>
		<path class="st1" d="M250,226.8c1.6,0.6,3.2,1.1,4.9,1.5"/>
		<path class="st1" d="M262.9,224.3c-3.3-0.1-6.5-0.6-9.5-1.6"/>
		<path class="st1" d="M262.9,224.3c3.3,0.1,6.2,1.7,7.9,4.2"/>
		<path class="st1" d="M275.7,227.3c-0.8-1.6-1.9-3-3.2-4.1"/>
		<path class="st1" d="M254.9,228.2c2.6,0.6,5.2,0.9,7.9,1"/>
		<path class="st1" d="M270.8,228.6c-1.7-2.5-4.6-4.2-7.9-4.2"/>
		<path class="st1" d="M286.1,209.2c1.2,1.1,2.3,2.3,3.4,3.6"/>
		<path class="st1" d="M292.3,209.1c-1.1-1.3-2.3-2.5-3.5-3.6"/>
		<path class="st1" d="M234.2,207.8c0.8,1.3,1.7,2.6,2.7,3.8"/>
		<path class="st1" d="M240.4,208.2c-0.9-1.2-1.8-2.5-2.5-3.8"/>
		<path class="st1" d="M236.9,211.6c1,1.3,2.2,2.5,3.4,3.6"/>
		<path class="st1" d="M243.7,211.8c-1.2-1.1-2.3-2.3-3.3-3.6"/>
		<path class="st1" d="M282.6,212.6"/>
		<path class="st1" d="M278.5,215.5c1.3,1.1,2.5,2.3,3.5,3.6"/>
		<path class="st1" d="M240.2,215.2c1.2,1.1,2.5,2.1,3.8,3.1"/>
		<path class="st1" d="M247.7,214.8c-1.4-0.9-2.7-1.9-4-3.1"/>
		<path class="st1" d="M252.6,217.4c-1.7-0.7-3.4-1.5-4.9-2.5"/>
		<path class="st1" d="M244.1,218.3c1.4,0.9,2.8,1.8,4.3,2.5"/>
		<path class="st1" d="M263,219.5c3.7,0.1,7,1.5,9.5,3.7"/>
		<path class="st1" d="M273.5,217.8"/>
		<path class="st1" d="M248.4,220.8c1.6,0.8,3.3,1.5,5,2"/>
		<path class="st1" d="M263,219.5"/>
		<path class="st1" d="M253.4,222.8c3,0.9,6.2,1.5,9.5,1.6"/>
		<path class="st1" d="M272.5,223.2c-2.5-2.2-5.8-3.6-9.5-3.7"/>
		<path class="st1" d="M282.3,206.1c1.3,0.9,2.6,2,3.8,3.1"/>
		<path class="st1" d="M288.8,205.5c-1.2-1.1-2.5-2.1-3.9-3.1"/>
		<path class="st1" d="M237.9,204.4c0.7,1.3,1.6,2.6,2.5,3.8"/>
		<path class="st1" d="M244.4,205.3c-0.9-1.2-1.8-2.4-2.5-3.8"/>
		<path class="st1" d="M278.7,209.6c1.4,0.9,2.7,1.9,4,3.1"/>
		<path class="st1" d="M286.1,209.2c-1.2-1.1-2.5-2.1-3.8-3.1"/>
		<path class="st1" d="M247.8,208.9c-1.3-1.1-2.5-2.3-3.5-3.6"/>
		<path class="st1" d="M240.4,208.2c1,1.3,2.1,2.5,3.3,3.6"/>
		<path class="st1" d="M273.9,212.4c1.7,0.8,3.2,1.9,4.6,3.1"/>
		<path class="st1" d="M282.6,212.6c-1.2-1.1-2.6-2.2-4-3.1"/>
		<path class="st1" d="M252.5,212c-1.7-0.8-3.2-1.9-4.6-3.1"/>
		<path class="st1" d="M243.7,211.8c1.2,1.1,2.6,2.2,4,3.1"/>
		<path class="st1" d="M263.1,214.6c-3.8-0.1-7.4-1-10.6-2.7"/>
		<path class="st1" d="M247.7,214.8"/>
		<path class="st1" d="M263.1,214.6c3.8,0.1,7.4,1.3,10.4,3.2"/>
		<path class="st1" d="M278.5,215.5c-0.4-0.4-0.9-0.7-1.4-1.1c-1-0.7-2.1-1.4-3.3-2"/>
		<path class="st1" d="M263.1,214.6"/>
		<path class="st1" d="M273.5,217.8"/>
		<path class="st1" d="M263,219.5"/>
		<path class="st1" d="M241.9,201.5c0.7,1.3,1.5,2.6,2.5,3.8"/>
		<path class="st1" d="M248.8,203c-1-1.2-1.9-2.4-2.6-3.8"/>
		<path class="st1" d="M278,203.6"/>
		<path class="st1" d="M284.9,202.5c-1.3-0.9-2.7-1.8-4.2-2.5"/>
		<path class="st1" d="M273.7,207c1.7,0.7,3.4,1.5,4.9,2.5"/>
		<path class="st1" d="M278,203.6"/>
		<path class="st1" d="M278.7,209.6c-1.5-1-3.2-1.8-4.9-2.5"/>
		<path class="st1" d="M263.2,209.8c0.8,0,1.6,0.1,2.4,0.2c2.9,0.4,5.7,1.2,8.2,2.5"/>
		<path class="st1" d="M273.9,212.4"/>
		<path class="st1" d="M252.5,212c3.2,1.6,6.8,2.6,10.6,2.7"/>
		<path class="st1" d="M263.2,209.8"/>
		<path class="st1" d="M280.7,199.9c-1.5-0.8-3-1.4-4.5-2"/>
		<path class="st1" d="M273,201.6c1.7,0.5,3.4,1.2,5,2"/>
		<path class="st1" d="M263.3,204.9c3.7,0.1,7.2,0.8,10.4,2.1"/>
		<path class="st1" d="M278,203.6c-1.6-0.8-3.3-1.5-5-2"/>
		<path class="st1" d="M248.8,203c1.2,1.4,2.6,2.6,4.1,3.6"/>
		<path class="st1" d="M263.3,204.9c-3.7-0.1-7-1.5-9.5-3.7"/>
		<path class="st1" d="M273.7,207c-3.2-1.3-6.7-2-10.4-2.1"/>
		<path class="st1" d="M252.9,206.6c3,1.9,6.5,3.1,10.4,3.2"/>
		<path class="st1" d="M263.5,200.1c3.3,0.1,6.5,0.6,9.5,1.6"/>
		<path class="st1" d="M276.2,198c-1.6-0.6-3.3-1.1-5-1.5"/>
		<path class="st1" d="M250.8,197.4c0.8,1.4,1.8,2.7,3.1,3.8"/>
		<path class="st1" d="M263.5,200.1c-3.1-0.1-5.9-1.6-7.6-3.9"/>
		<path class="st1" d="M263.5,200.1"/>
		<path class="st1" d="M262.7,234c-1.7,0-3.3-0.2-4.9-0.4"/>
		<path class="st1" d="M262.6,239c2.7,0.1,5-2.2,5-4.9c0-0.1,0-0.2,0-0.4"/>
		<path class="st1" d="M299.2,266.4c3-2.4,5.6-5.4,7.8-8.7c2.4-3.7,4.1-7.7,5.1-11.7c0.4-1.6,0.7-3.2,0.9-4.8"/>
		<path class="st1" d="M233.4,261.5c-0.3-0.1-0.5-0.2-0.8-0.4c-0.3-0.1-0.5-0.3-0.8-0.4c-2.9-1.4-5.7-3-8.4-4.7
			c-3.7-2.4-7.1-5-10.3-7.9"/>
		<path class="st1" d="M302,269.7c3.2-2.1,6.2-4.6,8.8-7.7c2.9-3.4,5-7.1,6.5-11c0.6-1.5,1.1-3.1,1.4-4.7"/>
	</g>
</g>
<linearGradient id="SVGID_4_" gradientUnits="userSpaceOnUse" x1="213.9149" y1="276.6181" x2="318.3315" y2="276.6181">
	<stop  offset="0" style="stop-color:#6298A9"/>
	<stop  offset="1" style="stop-color:#4F587F"/>
</linearGradient>
<path class="st4" d="M213.9,258.4v28.7c0,4.2,3.4,7.7,7.7,7.7h89.1c4.2,0,7.7-3.4,7.7-7.7v-28.7H213.9z"/>
<g>
	<defs>
		<path id="SVGID_5_" d="M305.8,296.4h-79.2c-7,0-12.7-5.7-12.7-12.7V146c0-7,5.7-12.7,12.7-12.7h79.2c7,0,12.7,5.7,12.7,12.7v137.6
			C318.5,290.7,312.8,296.4,305.8,296.4z"/>
	</defs>
	<clipPath id="SVGID_6_">
		<use xlink:href="#SVGID_5_"  style="overflow:visible;"/>
	</clipPath>
	<linearGradient id="SVGID_7_" gradientUnits="userSpaceOnUse" x1="211.3914" y1="214.8522" x2="321.0107" y2="214.8522">
		<stop  offset="0" style="stop-color:#6298A9"/>
		<stop  offset="1" style="stop-color:#4F587F"/>
	</linearGradient>
	<use xlink:href="#SVGID_5_"  style="overflow:visible;fill:none;stroke:url(#SVGID_7_);stroke-width:5;stroke-miterlimit:10;"/>
</g>
</svg>
